<svg width="41" height="29" viewBox="0 0 41 29" fill="none" xmlns="http://www.w3.org/2000/svg">
<path d="M0.896 22L9.744 0.915999H9.912L18.732 22H15.624L9.016 5.172L10.948 3.912L3.556 22H0.896ZM6.076 14.328H13.608L14.504 16.68H5.292L6.076 14.328Z" fill="#DCBB86"/>
<g clip-path="url(#clip0_134_24)">
<path d="M22.8194 7.02778L26.3333 8.04222L30.1955 5.23722L24.6527 5.39611C24.5985 5.39907 24.5459 5.41591 24.5 5.445L22.7461 6.45333C22.6915 6.48356 22.6473 6.52946 22.6191 6.5851C22.5909 6.64074 22.5801 6.70355 22.588 6.76542C22.5959 6.82729 22.6221 6.88537 22.6634 6.93214C22.7047 6.97891 22.759 7.01223 22.8194 7.02778Z" fill="#DCBB86"/>
<path d="M40.0956 3.88667L36.2456 3.05556C35.9219 2.98526 35.5867 2.98545 35.263 3.05609C34.9393 3.12674 34.6346 3.2662 34.3695 3.465L22.7401 11.9167L19.9473 11.7944C19.7873 11.789 19.6297 11.834 19.4967 11.9229C19.3636 12.0119 19.2619 12.1405 19.2058 12.2904C19.1498 12.4403 19.1422 12.604 19.1843 12.7585C19.2263 12.9129 19.3158 13.0503 19.4401 13.1511L22.1595 15.3083C22.2043 15.3444 22.2576 15.3685 22.3143 15.3781C22.371 15.3877 22.4292 15.3826 22.4834 15.3633C23.2595 15.0639 26.1501 13.53 29.5662 11.6539L30.2506 18.6878C30.2565 18.7487 30.2788 18.8069 30.3152 18.856C30.3517 18.9052 30.4008 18.9435 30.4574 18.9667C30.514 18.99 30.5759 18.9974 30.6364 18.9881C30.6969 18.9788 30.7537 18.9531 30.8006 18.9139L32.3284 17.6428C32.4121 17.5726 32.4683 17.4753 32.4873 17.3678L33.9356 9.24611C36.3801 7.88944 38.7145 6.57556 40.3584 5.64667C40.529 5.55384 40.667 5.41081 40.7536 5.23697C40.8401 5.06312 40.8712 4.86686 40.8425 4.67477C40.8138 4.48268 40.7268 4.30405 40.5932 4.16308C40.4596 4.02211 40.2859 3.92562 40.0956 3.88667Z" fill="#DCBB86"/>
</g>
<defs>
<clipPath id="clip0_134_24">
<rect width="22" height="22" fill="white" transform="translate(19)"/>
</clipPath>
</defs>
</svg>
